<?xml version="1.0" encoding="UTF-8"?> <svg style="fill:#577FFA;" width="700pt" height="700pt" version="1.1" viewBox="0 0 700 700" xmlns="http://www.w3.org/2000/svg"><g><path d="m514.27 336h-373.33c-14.934 37.332-14.934 149.33 0 186.67h37.332v-56l33.602 56h283.73v-37.332l28 37.332h46.668z"/><path d="m514.27 280c0-11.199-7.4648-18.668-18.668-18.668h-130.67l14.934-168c1.8672-14.934-3.7344-28-13.066-39.199-9.332-11.199-26.129-16.801-39.195-16.801-13.066 0-28 5.6016-37.332 16.801-9.3359 11.199-16.805 24.266-14.938 39.199l14.934 168h-130.67c-11.199 0-18.668 7.4648-18.668 18.668v18.668h373.33zm-186.66-205.33c11.199 0 18.668 7.4648 18.668 18.668 0 11.199-7.4648 18.668-18.668 18.668-11.199 0-18.668-7.4648-18.668-18.668 0-11.203 7.4648-18.668 18.668-18.668z"/></g></svg>